<?xml version="1.0" encoding="utf-8"?>
<!-- Generator: Adobe Illustrator 19.1.0, SVG Export Plug-In . SVG Version: 6.00 Build 0)  -->
<svg version="1.1" id="Layer_1" xmlns="http://www.w3.org/2000/svg" xmlns:xlink="http://www.w3.org/1999/xlink" x="0px" y="0px"
	 viewBox="0 0 500 500" style="enable-background:new 0 0 500 500;" xml:space="preserve">
<style type="text/css">
	.st0{fill:none;stroke:#FFFFFF;stroke-width:20;stroke-linejoin:round;stroke-miterlimit:10;}
	.st1{fill:#FFFFFF;}
</style>
<g>
	<path class="st0" d="M103.2,363.3l-8.5,52.4c0,0,9.2-8.2,42.5-41.5s156.9-35.9,156.9-35.9v35"/>
	<line class="st0" x1="323.1" y1="338.3" x2="323.1" y2="388.3"/>
	<line class="st0" x1="351.3" y1="338.3" x2="351.3" y2="408.3"/>
	<path class="st0" d="M379.1,475h31.7c0,0-31.7-13.3-31.7-33.3s15.8-166.7,15.8-208.4s-32.5-46.7-32.5-46.7"/>
	<path class="st0" d="M466.1,230.2c0,0-50.8-15.2-50.8-41.9s0-46.7,0-46.7l32.5,10V105c0,0-71.7-80-138.3-80S230,54.5,230,91.1
		s38.8,48,38.8,48"/>
	<path class="st0" d="M68.5,255.2l7.8-38.9c0,0,180,0.3,210-29.6s29.2-59.2,50-80"/>
	<path class="st0" d="M97,475H76.4c0,0-3.3-42.5-42.5-42.5l21.2-129.2c0,0,48.1,5.4,48.1-48.1"/>
	<circle class="st1" cx="380.9" cy="99" r="7.9"/>
</g>
</svg>
